<svg xmlns="http://www.w3.org/2000/svg" width="92.596" height="32" viewBox="0 0 92.596 32"><defs><style>.a{fill:#fff;}.b{fill:none;}</style></defs><g transform="translate(2.723 2.723)"><g transform="translate(0 0.077)"><path class="a" d="M159.183-490.874c0-3.263-6.744-5.086-16.529-6.068v.07c8.7.931,14.569,2.574,14.569,5.388,0,2.912-5.627,5.528-14.569,7.329v1.632C152.739-484.5,159.183-487.5,159.183-490.874Z" transform="translate(-142.654 499.342)"/><path class="a" d="M146.9-486.221c0-.931-1.565-1.648-4.245-2.2v4.9C145.367-484.328,146.9-485.247,146.9-486.221Z" transform="translate(-142.654 491.491)"/><path class="a" d="M165.614-527.428H143.788a1.134,1.134,0,0,0-1.134,1.134v1.115c12.354,1.087,21.275,3.366,21.275,7.873,0,4.638-8.461,8.719-21.275,11.09v1.748a1.134,1.134,0,0,0,1.134,1.134h21.826a1.134,1.134,0,0,0,1.134-1.134v-21.826A1.134,1.134,0,0,0,165.614-527.428Z" transform="translate(-142.654 527.428)"/><path class="a" d="M152.814-489.671c0-1.926-3.965-3.175-10.16-3.973v.1c5.135.733,8.339,1.822,8.339,3.423,0,1.666-3.109,3.2-8.339,4.429v1.253C148.983-485.842,152.814-487.671,152.814-489.671Z" transform="translate(-142.654 496.304)"/></g><g transform="translate(29.134 0)"><path class="a" d="M687.883-476.995c0,3.672-1.836,4.406-3.3,4.406-4.039,0-4.039-4.039-4.039-4.039v-5.141h2.2v5.141a1.713,1.713,0,0,0,1.836,1.836c.734,0,2.57-.367,2.57-2.2v-4.773h2.2v8.812h-1.836l-.367-4.039Z" transform="translate(-667.321 485.44)"/><path class="a" d="M983.763-525.1a2.864,2.864,0,0,0-2.57,1.227V-528.4h-2.2v12.484h1.836l.11-1.322a2.831,2.831,0,0,0,2.827,1.689c3.3,0,4.039-2.57,4.039-4.773S987.068-525.1,983.763-525.1Zm-.367,7.344c-1.469,0-2.2-1.1-2.2-2.57s.734-2.57,2.2-2.57,2.2,1.1,2.2,2.57S984.865-517.753,983.4-517.753Z" transform="translate(-942.272 528.401)"/><g transform="translate(33.046)"><rect class="a" width="2.203" height="8.812" transform="translate(0 3.672)"/><rect class="a" width="2.203" height="2.203"/></g><path class="a" d="M1109.3-486.432c-2.2,0-4.039.734-4.039,3.3h2.2c0-.734.367-1.1,1.836-1.1,1.836,0,2.2.367,2.2,1.469v.612a4.567,4.567,0,0,0-2.937-.612c-2.937,0-3.672,1.469-3.672,2.938s.734,2.937,3.672,2.937c1.289,0,2.577-.182,3.231-1.18l.074.813h1.836v-5.508C1113.71-486.065,1111.507-486.432,1109.3-486.432Zm0,7.711c-1.1,0-2.2,0-2.2-1.1s1.1-1.1,2.2-1.1,2.2,0,2.2,1.1S1110.406-478.721,1109.3-478.721Z" transform="translate(-1058.266 489.737)"/><g transform="translate(55.077 0)"><g transform="translate(0.915 0.612)"><path class="a" d="M1223.781-520.629h.625a.625.625,0,0,1,.3.069.5.5,0,0,1,.2.193.545.545,0,0,1,.072.279.451.451,0,0,1-.1.293.593.593,0,0,1-.262.185l0,.017.459.658v.019h-.371l-.443-.644h-.151v.644h-.323Zm.622.773a.247.247,0,0,0,.179-.067.226.226,0,0,0,.07-.17.235.235,0,0,0-.066-.167.234.234,0,0,0-.178-.069h-.3v.474Z" transform="translate(-1223.781 520.629)"/></g><path class="a" d="M1213.623-525.464a1.47,1.47,0,0,1-1.469-1.469,1.47,1.47,0,0,1,1.469-1.469,1.47,1.47,0,0,1,1.469,1.469A1.47,1.47,0,0,1,1213.623-525.464Zm0-2.693a1.225,1.225,0,0,0-1.224,1.224,1.225,1.225,0,0,0,1.224,1.224,1.225,1.225,0,0,0,1.224-1.224A1.225,1.225,0,0,0,1213.623-528.156Z" transform="translate(-1212.154 528.401)"/></g><path class="a" d="M522.208-528.4v9.339l-6.542-9.339h-3.005v12.484h2.2v-9.729l6.542,9.729h3.005V-528.4Z" transform="translate(-512.661 528.401)"/><path class="a" d="M815.26-481.768h-2.937l-1.469,2.937-1.469-2.937h-2.937l2.938,4.406-2.937,4.406h2.938l1.469-2.937,1.469,2.937h2.937l-2.937-4.406Z" transform="translate(-783.315 485.44)"/></g><g transform="translate(29.108 17.208)"><path class="a" d="M518.442-302.89l-.617-4.874-1.82,3.342-1.84-3.352-.627,4.884h-1.2l.955-6.962h.965L516-306.58l1.741-3.272h.955l.955,6.962Z" transform="translate(-512.335 309.852)"/><path class="a" d="M613.3-280.5a1.413,1.413,0,0,1-.413-1.059,1.288,1.288,0,0,1,.458-1.034,2.71,2.71,0,0,1,1.1-.552,5.888,5.888,0,0,1,1.278-.184.99.99,0,0,0-.229-.721,1.05,1.05,0,0,0-.726-.2,2.178,2.178,0,0,0-.632.094,3.861,3.861,0,0,0-.7.3l-.119-.905a3.614,3.614,0,0,1,1.76-.458,1.692,1.692,0,0,1,1.333.492,2.429,2.429,0,0,1,.438,1.626v1.223a3.177,3.177,0,0,0,.035.562.381.381,0,0,0,.129.244.539.539,0,0,0,.313.07h.139l-.129.905h-.308a1.44,1.44,0,0,1-.741-.159,1.138,1.138,0,0,1-.423-.467,1.825,1.825,0,0,1-.656.458,2.169,2.169,0,0,1-.855.169A1.44,1.44,0,0,1,613.3-280.5Zm1.969-.587a1.331,1.331,0,0,0,.462-.343v-1.144a2.947,2.947,0,0,0-1.228.268.753.753,0,0,0-.463.7q0,.647.706.646A1.262,1.262,0,0,0,615.268-281.086Z" transform="translate(-604.969 287.159)"/><path class="a" d="M683.492-284.612a2.636,2.636,0,0,1,.477,1.671v2.745h-1.1v-2.676a1.8,1.8,0,0,0-.254-1.074.983.983,0,0,0-.84-.338,1.28,1.28,0,0,0-1.074.487v3.6h-1.114v-4.933h.985l.04.408a2.282,2.282,0,0,1,1.442-.5A1.723,1.723,0,0,1,683.492-284.612Z" transform="translate(-666.414 287.159)"/><path class="a" d="M745.427-280.5a1.413,1.413,0,0,1-.413-1.059,1.288,1.288,0,0,1,.458-1.034,2.71,2.71,0,0,1,1.1-.552,5.887,5.887,0,0,1,1.278-.184.99.99,0,0,0-.229-.721,1.05,1.05,0,0,0-.726-.2,2.178,2.178,0,0,0-.632.094,3.865,3.865,0,0,0-.7.3l-.119-.905a3.614,3.614,0,0,1,1.76-.458,1.692,1.692,0,0,1,1.333.492,2.429,2.429,0,0,1,.438,1.626v1.223a3.17,3.17,0,0,0,.035.562.381.381,0,0,0,.129.244.539.539,0,0,0,.313.07h.139l-.129.905h-.308a1.44,1.44,0,0,1-.741-.159,1.137,1.137,0,0,1-.423-.467,1.825,1.825,0,0,1-.657.458,2.168,2.168,0,0,1-.855.169A1.44,1.44,0,0,1,745.427-280.5Zm1.969-.587a1.332,1.332,0,0,0,.463-.343v-1.144a2.947,2.947,0,0,0-1.228.268.753.753,0,0,0-.462.7q0,.647.706.646A1.262,1.262,0,0,0,747.4-281.086Z" transform="translate(-726.693 287.159)"/><path class="a" d="M808.049-278.194a1.172,1.172,0,0,1-.632-1.054,1.294,1.294,0,0,1,.816-1.164.762.762,0,0,1-.448-.667.749.749,0,0,1,.527-.706,1.69,1.69,0,0,1-.592-.676,2.1,2.1,0,0,1-.2-.935,2.051,2.051,0,0,1,.239-.99,1.758,1.758,0,0,1,.691-.7,2.141,2.141,0,0,1,1.079-.259,1.99,1.99,0,0,1,1.164.338,1.791,1.791,0,0,1,.482-.179,2.731,2.731,0,0,1,.632-.07h.229l-.089.706h-.368a1.834,1.834,0,0,0-.378.04,1.813,1.813,0,0,1,.348,1.114,2.079,2.079,0,0,1-.239.995,1.771,1.771,0,0,1-.7.711,2.134,2.134,0,0,1-1.084.264,2.128,2.128,0,0,1-.567-.079.207.207,0,0,0-.159.2q0,.12.154.2a1.5,1.5,0,0,0,.482.119l1.015.149q1.691.239,1.691,1.422a1.336,1.336,0,0,1-.641,1.178,3.2,3.2,0,0,1-1.775.423A3.244,3.244,0,0,1,808.049-278.194Zm3.068-1.154a.462.462,0,0,0-.224-.413,1.941,1.941,0,0,0-.711-.224l-1.193-.189a1.135,1.135,0,0,0-.443.294.629.629,0,0,0-.164.433.6.6,0,0,0,.368.562,2.358,2.358,0,0,0,1.034.184Q811.117-278.7,811.117-279.347Zm-.855-3.228a1.224,1.224,0,0,0,.259-.821,1.2,1.2,0,0,0-.259-.816.922.922,0,0,0-.736-.3.914.914,0,0,0-.736.3,1.207,1.207,0,0,0-.259.811,1.223,1.223,0,0,0,.259.821.914.914,0,0,0,.736.3A.914.914,0,0,0,810.262-282.575Z" transform="translate(-784.183 287.275)"/><path class="a" d="M871.922-280.445a2.3,2.3,0,0,1-.91-.94,2.808,2.808,0,0,1-.308-1.318,2.817,2.817,0,0,1,.284-1.268,2.189,2.189,0,0,1,.835-.91,2.436,2.436,0,0,1,1.3-.338,2.271,2.271,0,0,1,1.139.274,1.845,1.845,0,0,1,.736.751,2.3,2.3,0,0,1,.254,1.094,2.581,2.581,0,0,1-.07.607h-3.322a1.579,1.579,0,0,0,.532,1.114,1.722,1.722,0,0,0,1.1.348,2.937,2.937,0,0,0,1.462-.368l.08.925a3.638,3.638,0,0,1-1.651.378A2.864,2.864,0,0,1,871.922-280.445Zm2.193-2.8a1.112,1.112,0,0,0-.249-.736.928.928,0,0,0-.756-.3,1.171,1.171,0,0,0-1.214,1.034Z" transform="translate(-842.486 287.159)"/><path class="a" d="M946.493-284.647A2.506,2.506,0,0,1,946.97-283v2.8h-1.114v-2.745a1.761,1.761,0,0,0-.234-1.019.887.887,0,0,0-.771-.323.971.971,0,0,0-.845.358,1.577,1.577,0,0,0-.259.945v2.785h-1.1v-2.676a1.8,1.8,0,0,0-.254-1.084.914.914,0,0,0-.771-.328,1.28,1.28,0,0,0-1.084.5v3.591h-1.114v-4.933h.925l.07.438a2.305,2.305,0,0,1,1.482-.527,1.6,1.6,0,0,1,1.482.786,1.709,1.709,0,0,1,.681-.582,2.229,2.229,0,0,1,.98-.2A1.784,1.784,0,0,1,946.493-284.647Z" transform="translate(-905.793 287.159)"/><path class="a" d="M1047-280.445a2.3,2.3,0,0,1-.91-.94,2.805,2.805,0,0,1-.308-1.318,2.817,2.817,0,0,1,.284-1.268,2.189,2.189,0,0,1,.835-.91,2.436,2.436,0,0,1,1.3-.338,2.271,2.271,0,0,1,1.139.274,1.845,1.845,0,0,1,.736.751,2.3,2.3,0,0,1,.254,1.094,2.584,2.584,0,0,1-.07.607h-3.322a1.579,1.579,0,0,0,.532,1.114,1.722,1.722,0,0,0,1.1.348,2.937,2.937,0,0,0,1.462-.368l.08.925a3.638,3.638,0,0,1-1.651.378A2.864,2.864,0,0,1,1047-280.445Zm2.193-2.8a1.111,1.111,0,0,0-.249-.736.928.928,0,0,0-.756-.3,1.171,1.171,0,0,0-1.214,1.034Z" transform="translate(-1003.777 287.159)"/><path class="a" d="M1118.408-284.612a2.636,2.636,0,0,1,.477,1.671v2.745h-1.1v-2.676a1.8,1.8,0,0,0-.254-1.074.983.983,0,0,0-.84-.338,1.28,1.28,0,0,0-1.074.487v3.6H1114.5v-4.933h.985l.04.408a2.282,2.282,0,0,1,1.442-.5A1.723,1.723,0,0,1,1118.408-284.612Z" transform="translate(-1067.085 287.159)"/><path class="a" d="M1179.5-294.08a1.272,1.272,0,0,1-.333-.885v-2.884h-.746l.1-.9h.647v-1.134l1.114-.119v1.253h1.164v.9h-1.164v2.367a2.412,2.412,0,0,0,.05.6.3.3,0,0,0,.214.214,2.353,2.353,0,0,0,.592.05h.3l-.1.905h-.855A1.254,1.254,0,0,1,1179.5-294.08Z" transform="translate(-1125.969 300.774)"/></g></g><rect class="b" width="92.596" height="32"/></svg>